<?xml version="1.0" encoding="utf-8"?>
<!-- Generator: Adobe Illustrator 16.0.0, SVG Export Plug-In . SVG Version: 6.00 Build 0)  -->
<!DOCTYPE svg PUBLIC "-//W3C//DTD SVG 1.1//EN" "http://www.w3.org/Graphics/SVG/1.1/DTD/svg11.dtd">
<svg version="1.1" id="Capa_1" xmlns="http://www.w3.org/2000/svg" xmlns:xlink="http://www.w3.org/1999/xlink" x="0px" y="0px"
	 width="235.359px" height="207.436px" viewBox="0 -4.461 235.359 207.436" enable-background="new 0 -4.461 235.359 207.436"
	 xml:space="preserve">
<g>
	<g id="XMLID_1_">
		<g>
			<path fill="#FFFFFF" d="M150.138,52.873l18.332,24.441l-50.568,46.855l-50.589-46.87L85.63,52.873H150.138z M161.733,75.041
				l-12.029-16.057l-6.301,16.057H161.733z M124.827,112.258l35.814-33.189h-18.939L124.827,112.258z M139.565,73.705L146.18,56.9
				H122.76L139.565,73.705z M117.901,116.947l19.252-37.879H98.808L117.901,116.947z M100.595,75.041h34.611L117.9,57.734
				L100.595,75.041z M96.462,73.443L113.022,56.9H90.96L96.462,73.443z M111.044,112.33L94.292,79.068H75.163L111.044,112.33z
				 M92.747,75.041L87.001,57.77L74.052,75.041H92.747z"/>
		</g>
	</g>
	<path fill="none" stroke="#010002" stroke-miterlimit="10" d="M60.671,154.896c0.865-0.674,1.719-1.573,2.551-2.709
		c0.83-1.136,1.25-2.073,1.25-2.813c0-1.041-0.197-1.899-0.592-2.569c-0.391-0.673-0.873-1.009-1.441-1.009
		c-1.023,0-1.898,0.187-2.621,0.558c-0.729,0.369-1.334,0.851-1.822,1.44c-0.486,0.592-0.877,1.263-1.174,2.015
		c-0.299,0.754-0.645,1.688-1.037,2.797c-0.391,1.112-0.611,2.028-0.66,2.746c-0.047,0.719-0.068,1.332-0.068,1.842
		c0.855,0,1.791-0.215,2.801-0.646C58.862,156.12,59.8,155.57,60.671,154.896z"/>
	<path fill="none" stroke="#010002" stroke-miterlimit="10" d="M150.997,139.279c0.611-1.816,1.188-3.523,1.727-5.121
		c0.539-1.6,0.986-2.957,1.348-4.072c0.166-0.518,0.406-1.168,0.717-1.953c0.313-0.779,0.648-1.621,1.006-2.521
		c0.361-0.898,0.721-1.836,1.078-2.807c0.359-0.973,0.689-1.908,0.988-2.809c0.299-0.898,0.543-1.74,0.736-2.521
		c0.188-0.783,0.283-1.441,0.283-1.992c0-0.758-0.25-1.135-0.756-1.135c-0.77,0-1.43,0.236-1.979,0.709
		c-0.557,0.475-1.076,1.146-1.57,2.02c-0.492,0.877-0.986,1.938-1.479,3.188c-0.492,1.254-1.053,2.646-1.678,4.182
		c-0.338,1.381-0.684,2.801-1.041,4.264c-0.355,1.461-0.643,2.906-0.859,4.336c-0.223,1.434-0.434,2.838-0.641,4.227
		c-0.211,1.385-0.406,2.682-0.592,3.891c-0.354,2.986-0.637,5.921-0.852,8.813c0.521-1.589,1.092-3.312,1.717-5.175
		C149.772,142.932,150.388,141.092,150.997,139.279z"/>
	<path fill="#FDFDFD" d="M46.87,162.593c-0.355,0.328-0.711,0.656-1.092,0.966c-0.547,0.442-1.104,0.834-1.672,1.166
		c-0.568,0.336-1.125,0.608-1.672,0.825c-0.543,0.214-1.064,0.322-1.563,0.322c-0.473,0-0.875-0.406-1.207-1.22
		c-0.33-0.813-0.498-1.864-0.498-3.157c0-1.647,0.086-3.209,0.25-4.681c0.164-1.469,0.414-3.103,0.748-4.896
		c0.33-1.793,0.58-3.433,0.744-4.914c0.166-1.481,0.248-3.047,0.248-4.698c0-1.074-0.387-1.904-1.154-2.492
		c-0.771-0.584-1.713-0.879-2.822-0.879c-0.996,0-1.84,0.33-2.525,0.986c-0.688,0.658-1.373,1.463-2.061,2.417
		c-0.713,0.984-1.477,2.117-2.293,3.412c-0.814,1.291-1.588,2.522-2.309,3.692c-0.727,1.171-1.395,2.349-2.01,3.533
		s-0.947,1.81-0.994,1.883l-0.391-0.432c0-0.048,0.012-0.146,0.033-0.285c0.07-0.455,0.145-0.804,0.215-1.043
		c0.428-1.479,0.723-2.617,0.891-3.406c0.211-0.905,0.402-1.674,0.564-2.295c0.145-0.549,0.285-1.36,0.43-2.438
		c0.117-0.836,0.178-1.724,0.178-2.653c0-1.074-0.357-1.904-1.068-2.492c-0.709-0.584-1.561-0.879-2.559-0.879
		c-1.064,0-1.982,0.32-2.752,0.969c-0.771,0.646-1.498,1.459-2.188,2.437c-0.711,0.984-1.457,2.113-2.236,3.396
		c-0.781,1.274-1.51,2.505-2.188,3.677c-0.674,1.172-1.303,2.354-1.883,3.551c-0.582,1.193-0.895,1.826-0.939,1.899l-0.393-0.432
		c0.355-2.009,0.697-3.826,1.029-5.451c0.023-0.047,0.119-0.668,0.285-1.864c0.094-0.621,0.164-1.23,0.213-1.828
		c0.068-0.601,0.125-1.16,0.16-1.687c0.033-0.529,0.053-0.994,0.053-1.401c0-0.739-0.023-1.325-0.07-1.759
		c-0.049-0.43-0.193-0.758-0.441-0.984c-0.25-0.227-0.631-0.367-1.141-0.432c-0.51-0.059-1.213-0.09-2.115-0.09
		c-0.592,0-1.076,0.041-1.453,0.127c-0.381,0.084-0.705,0.25-0.979,0.504c-0.271,0.248-0.514,0.604-0.729,1.057
		c-0.211,0.455-0.438,1.063-0.676,1.829c-0.236,0.739-0.498,1.698-0.781,2.87c-0.281,1.173-0.563,2.464-0.836,3.875
		c-0.271,1.408-0.592,3.063-0.957,4.959c-0.367,1.896-0.646,3.585-0.836,5.062c-0.189,1.479-0.346,2.888-0.463,4.222
		c-0.119,1.338-0.178,2.491-0.178,3.472c0,0.922,0.053,1.809,0.16,2.674c0.105,0.86,0.318,1.631,0.639,2.312
		c0.318,0.676,0.775,1.219,1.367,1.618c0.592,0.404,1.375,0.605,2.35,0.605c0.756,0,1.447-0.168,2.076-0.502
		c0.627-0.332,1.18-0.972,1.652-1.912c1.633-3.197,2.965-5.896,3.996-8.103s1.877-4,2.543-5.384c0.66-1.383,1.176-2.228,1.543-2.942
		s0.693-1.407,0.979-1.407h0.531c-0.377,0-0.695,4.036-0.959,5.937c-0.117,0.81-0.234,1.524-0.354,2.346
		c-0.117,0.822-0.227,1.545-0.318,2.285c-0.094,0.735-0.166,1.365-0.213,1.938c-0.049,0.571-0.072,0.998-0.072,1.31
		c0,0.713,0.041,1.439,0.125,2.201c0.082,0.76,0.248,1.448,0.498,2.081c0.248,0.634,0.6,1.15,1.049,1.556
		c0.449,0.403,1.055,0.602,1.813,0.602c0.996,0,1.873-0.172,2.631-0.512c0.756-0.342,1.441-0.754,2.061-1.743l7.215-17.997h0.531
		c-0.189,0-0.338,3.169-0.441,4.855c-0.107,1.685-0.16,3.154-0.16,4.658c0,1.559,0.076,2.93,0.229,4.252s0.408,2.438,0.768,3.417
		c0.354,0.974,0.821,1.72,1.398,2.267c0.582,0.543,1.301,0.809,2.15,0.809c1.729,0,3.281-0.229,4.656-0.677
		c1.371-0.449,2.635-1.022,3.783-1.722c1.146-0.701,2.236-1.488,3.268-2.354c0.313-0.26,0.629-0.502,0.941-0.758
		c-0.777-1.162-1.436-2.418-1.869-3.854C47.14,164.061,47.001,163.329,46.87,162.593z"/>
	<path fill="#FDFDFD" d="M74.845,163.046c0.098-1.188,0.236-2.446,0.4-3.752c-0.49,0.397-0.994,0.799-1.555,1.217
		c-1.326,0.984-2.736,1.895-4.229,2.729c-1.491,0.834-3.023,1.526-4.602,2.086c-1.576,0.555-3.074,0.832-4.494,0.832
		c-0.453,0-0.877-0.046-1.268-0.14c-0.395-0.093-0.77-0.254-1.123-0.483c-0.359-0.232-0.709-0.558-1.055-0.976
		c-0.344-0.416-0.693-0.938-1.055-1.563c2.068-0.561,3.984-1.332,5.752-2.33c1.771-0.994,3.295-2.129,4.578-3.4
		c1.281-1.275,2.402-2.805,3.365-4.59c0.959-1.781,1.439-3.393,1.439-4.832c0-1.346-0.236-2.563-0.711-3.65
		c-0.475-1.09-1.133-2.021-1.975-2.786c-0.84-0.771-1.834-1.367-2.971-1.796c-1.141-0.424-2.373-0.639-3.699-0.639
		c-1.625,0-3.105,0.286-4.438,0.858c-1.332,0.573-2.532,1.346-3.604,2.315c-1.072,0.971-2.01,2.094-2.813,3.365
		c-0.799,1.275-1.465,2.613-1.996,4.016c-0.529,1.404-1.043,3.014-1.536,4.822c-0.495,1.813-0.741,3.373-0.741,4.684
		c0,1.227,0.139,2.402,0.346,3.561c0.154-0.141,0.32-0.27,0.471-0.416c1.16-1.1,2.311-2.342,3.445-3.729l0.604,8.424
		c-0.729,0.563-1.446,1.152-2.171,1.744c0.212,0.316,0.387,0.664,0.621,0.961c1.104,1.387,2.49,2.488,4.146,3.309
		c1.66,0.82,3.598,1.23,5.809,1.23c1.424,0,2.828-0.166,4.213-0.496c1.387-0.33,2.727-0.77,4.016-1.313
		c1.293-0.553,2.523-1.18,3.697-1.887c1.082-0.65,2.094-1.318,3.047-1.996c-0.044-0.57-0.104-1.139-0.104-1.732
		C74.665,165.648,74.724,164.434,74.845,163.046z M55.122,155.352c0.049-0.718,0.271-1.634,0.66-2.746
		c0.395-1.108,0.738-2.043,1.037-2.797c0.297-0.752,0.688-1.423,1.174-2.015c0.488-0.592,1.096-1.071,1.822-1.44
		c0.723-0.371,1.598-0.558,2.621-0.558c0.568,0,1.053,0.336,1.441,1.009c0.395,0.67,0.59,1.528,0.59,2.569
		c0,0.74-0.418,1.681-1.25,2.813c-0.83,1.135-1.684,2.035-2.549,2.709c-0.871,0.674-1.809,1.224-2.816,1.649
		c-1.012,0.431-1.943,0.646-2.803,0.646C55.052,156.684,55.075,156.068,55.122,155.352z"/>
	<path fill="#FDFDFD" d="M50.786,158.448c-1.137,1.387-2.285,2.629-3.445,3.729c-0.148,0.146-0.314,0.275-0.471,0.416
		c0.131,0.736,0.271,1.468,0.482,2.173c0.436,1.435,1.092,2.688,1.869,3.853c0.723-0.591,1.439-1.183,2.17-1.744L50.786,158.448z"/>
	<path fill="#FDFDFD" d="M105.259,154.458c-0.521,0.267-1.063,0.517-1.633,0.754c-1.137,0.476-2.236,0.711-3.305,0.711
		c-0.379,0-0.74-0.071-1.084-0.213c-0.346-0.146-0.652-0.387-0.924-0.729c-0.273-0.344-0.492-0.801-0.658-1.369
		c-0.166-0.566-0.25-1.277-0.25-2.133c0-0.496,0.061-1.119,0.18-1.863c0.117-0.746,0.309-1.699,0.57-2.859
		c0.258-1.16,0.447-2.104,0.568-2.822c0.117-0.727,0.176-1.287,0.176-1.691c0-0.52-0.094-0.985-0.285-1.403
		c-0.189-0.412-0.443-0.762-0.764-1.047c-0.318-0.283-0.693-0.502-1.119-0.658c-0.426-0.153-0.863-0.229-1.314-0.229
		c-1.303,0-2.453,0.349-3.445,1.048c-0.994,0.697-1.885,1.559-2.666,2.574c-0.781,1.019-1.525,2.188-2.238,3.729
		c-0.709,1.537-1.301,3.614-1.775,3.614H84.9c-0.049,0-0.016-2.501,0.104-4.114c0.119-1.609,0.18-2.798,0.18-3.675
		c0-0.731-0.02-1.285-0.057-1.715c-0.031-0.425-0.133-0.736-0.301-0.964c-0.166-0.226-0.42-0.357-0.764-0.418
		c-0.346-0.059-0.824-0.084-1.441-0.084c-0.543,0-0.996,0.029-1.365,0.089c-0.365,0.061-0.674,0.181-0.924,0.358
		c-0.248,0.176-0.467,0.422-0.658,0.729c-0.188,0.307-0.379,0.72-0.564,1.241c-0.311,0.781-0.617,1.772-0.926,2.983
		c-0.309,1.209-0.676,2.72-1.104,4.533c-0.424,1.812-0.773,3.519-1.047,5.117c-0.273,1.596-0.51,3.168-0.711,4.707
		c-0.031,0.215-0.051,0.422-0.076,0.635c0.668-0.543,1.287-1.071,1.822-1.58l4.58,4.654c-2.082,2.223-4.299,4.184-6.645,5.893
		c-0.077,0.054-0.162,0.109-0.238,0.164c0.021,0.336,0.02,0.689,0.059,1.021c0.105,0.888,0.32,1.683,0.643,2.382
		c0.318,0.696,0.773,1.256,1.365,1.668c0.592,0.414,1.375,0.623,2.348,0.623c0.424,0,0.814-0.076,1.17-0.229
		c0.355-0.154,0.688-0.423,0.996-0.802c0.311-0.379,0.607-0.871,0.906-1.476c0.295-0.604,0.609-0.227,0.941-1.152l6.361-16.591
		h0.564c0.189,0,0.438,1.827,0.746,3.284c0.312,1.457,0.783,2.201,1.422,3.375c0.64,1.173,1.504,1.836,2.594,2.56
		c1.092,0.72,2.521,0.938,4.303,0.938c0.993,0,1.971-0.215,2.932-0.514c0.338-0.104,0.646-0.306,0.975-0.425
		c0.074-1.461,0.273-2.958,0.684-4.479C104.118,157.313,104.647,155.898,105.259,154.458z"/>
	<path fill="#FDFDFD" d="M81.649,162.368l-4.58-4.654c-0.535,0.509-1.154,1.037-1.822,1.58c-0.164,1.306-0.305,2.563-0.4,3.752
		c-0.121,1.388-0.182,2.604-0.182,3.646c0,0.597,0.061,1.162,0.104,1.733c0.078-0.055,0.162-0.11,0.238-0.164
		C77.351,166.552,79.567,164.591,81.649,162.368z"/>
	<path fill="#FFFFFF" d="M139.55,160.973c0.025-0.595,0.064-1.246,0.096-1.873c-0.762,0.957-1.516,1.87-2.266,2.688
		c-0.498,0.539-1.023,1.063-1.582,1.565c-0.557,0.506-1.111,0.957-1.67,1.356c-0.559,0.397-1.107,0.722-1.652,0.97
		c-0.543,0.247-1.064,0.368-1.563,0.368c-0.666,0-1.098-0.305-1.297-0.918c-0.203-0.612-0.303-1.461-0.303-2.545
		c0-1.271,0.195-2.834,0.586-4.688c0.389-1.854,0.74-3.506,1.045-4.953c0.305-1.448,0.578-2.862,0.814-4.243
		c0.234-1.38,0.354-2.636,0.354-3.771c0-0.74-0.064-1.328-0.193-1.763c-0.131-0.428-0.313-0.765-0.553-1.004
		c-0.238-0.237-0.512-0.396-0.82-0.466c-0.311-0.07-0.643-0.109-1.002-0.109c-0.264,0-0.527,0.008-0.805,0.021
		c-0.273,0.01-0.541,0.018-0.805,0.018c-0.309,0-0.613-0.018-0.912-0.055c-0.297-0.035-0.588-0.115-0.875-0.232
		c-0.285-0.123-0.523-0.313-0.713-0.576c-0.193-0.262-0.391-0.531-0.59-0.809c-0.203-0.275-0.461-0.52-0.77-0.736
		c-0.313-0.215-0.74-0.32-1.289-0.32c-1.645,0-3.26,0.348-4.842,1.045c-1.584,0.693-3.092,1.635-4.523,2.813
		c-1.432,1.181-2.746,2.563-3.947,4.144c-1.203,1.582-2.33,3.457-3.379,5.632c-0.322,0.663-0.566,1.286-0.838,1.924
		c0.521-0.269,1.021-0.547,1.494-0.847c1.111-0.687,2.201-1.469,3.27-2.346l-0.531,8.315c-0.617,0.399-1.314,0.853-2.098,1.351
		c-0.781,0.498-1.615,0.965-2.504,1.403c-0.576,0.283-1.191,0.488-1.799,0.713c-0.018,0.33-0.066,0.666-0.066,0.992
		c0,1.576,0.248,2.992,0.746,4.248c0.498,1.254,1.162,2.319,1.988,3.19c0.828,0.871,1.781,1.539,2.857,2.008
		c1.08,0.466,2.188,0.697,3.326,0.697c1.07,0,2.146-0.177,3.223-0.529c1.076-0.348,2.105-0.801,3.102-1.353
		c0.984-0.551,1.9-1.168,2.738-1.848c0.834-0.679,1.537-1.349,2.109-2.002c0.768,1.896,1.674,3.346,2.723,4.344
		c1.055,0.996,2.365,1.494,3.939,1.494c1.303,0,2.604-0.324,3.908-0.97c1.301-0.649,2.521-1.44,3.656-2.375
		c0.785-0.644,1.494-1.315,2.176-2.008c-0.063-0.804-0.107-1.627-0.107-2.519C139.409,165.052,139.456,163.234,139.55,160.973z
		 M121.015,157.275c-0.096,0.765-0.301,1.718-0.623,2.863c-0.318,1.144-0.74,2.252-1.262,3.323
		c-0.521,1.074-1.141,1.992-1.854,2.756c-0.713,0.765-1.506,1.146-2.383,1.146c-0.547,0-1-0.144-1.355-0.425
		c-0.354-0.28-0.641-0.646-0.852-1.099c-0.215-0.45-0.363-0.967-0.445-1.538c-0.084-0.574-0.125-1.169-0.125-1.779
		c0-1.032,0.135-2.14,0.408-3.312c0.271-1.174,0.742-2.537,1.401-4.086c0.663-1.551,1.341-2.854,2.028-3.912
		c0.686-1.055,1.438-1.993,2.256-2.815c0.816-0.821,1.688-1.476,2.609-1.955c0.926-0.479,1.871-0.721,2.842-0.721L121.015,157.275z"
		/>
	<path fill="#FDFDFD" d="M107.392,160.934c0.781-0.498,1.479-0.949,2.098-1.351l0.531-8.315c-1.066,0.877-2.156,1.659-3.27,2.347
		c-0.475,0.299-0.973,0.577-1.494,0.846c-0.609,1.44-1.141,2.838-1.484,4.131c-0.408,1.521-0.607,3.004-0.684,4.461
		c0.605-0.225,1.223-0.43,1.799-0.713C105.776,161.896,106.61,161.432,107.392,160.934z"/>
	<path fill="#FFFFFF" d="M169.261,166.975c0-0.746,0.039-1.554,0.121-2.425c0.082-0.873,0.205-1.805,0.371-2.801
		c0.094-0.549,0.182-1.062,0.264-1.549c-0.41,0.508-0.822,1.016-1.271,1.559c-1.713,2.08-4.574,6.16-7.756,5.394
		c-1.605-0.387-3.395-1.354-3.51-3.18c-0.225-3.492,4.523-6.188,6.604-8.396c2.359-2.498,5.424-6.353,5.424-9.981
		c0-1.015-0.131-1.931-0.391-2.75c-0.158-0.5-0.365-0.938-0.59-1.348c-1.34-2.408-3.896,2.607-4.391,3.443
		c-1.529,2.578-3.385,4.972-5.475,7.117c-3.248,3.338-7.41,5.799-8.438,10.674c-0.51,2.406-0.244,5.404,1.531,7.224
		c3.701,3.787,9.813,4.051,14.568,2.41c0.404-0.142,3.779-1.568,3.656-1.822c-0.113-0.233-0.236-0.459-0.318-0.719
		C169.394,168.979,169.263,168.032,169.261,166.975z"/>
	<path fill="#FFFFFF" d="M147.169,162.607c0-1.351,0.035-4.053,0.035-4.053l3.113-4.572l4.229-6.366
		c0.213-0.382,0.646-1.188,1.297-2.414c0.652-1.229,1.404-2.738,2.258-4.526c0.854-1.791,1.74-3.791,2.664-6.01
		c0.926-2.217,1.775-4.502,2.561-6.85c0.781-2.35,1.428-4.693,1.938-7.029s0.766-4.518,0.766-6.545c0-1.133-0.096-2.182-0.285-3.148
		c-0.188-0.969-0.516-1.799-0.977-2.494s-1.084-1.24-1.867-1.627c-0.779-0.391-1.775-0.586-2.982-0.586
		c-1.543,0-2.965,0.318-4.27,0.957c-1.307,0.639-2.502,1.508-3.59,2.605c-1.096,1.1-2.076,2.383-2.955,3.846
		c-0.875,1.465-1.664,3.006-2.365,4.625c-0.697,1.617-1.289,3.293-1.771,5.025c-0.48,1.734-0.939,3.387-1.379,4.959
		c-0.438,1.574-0.784,3.057-1.039,4.449c-0.258,1.391-0.473,2.563-0.646,3.523c-0.449,2.791-0.834,5.668-1.152,8.63
		c-0.319,2.964-0.574,5.8-0.764,8.507c-0.145,1.995-0.248,3.829-0.336,5.584c0.418-0.522,0.834-1.043,1.254-1.608l1.707,7.821
		c-0.547,0.767-1.275,1.664-2.188,2.694c-0.281,0.318-0.596,0.625-0.898,0.937c0.01,0.142,0.004,0.306,0.018,0.442
		c0.082,0.925,0.277,1.736,0.586,2.439c0.311,0.702,0.756,1.26,1.354,1.674c0.59,0.41,1.396,0.617,2.414,0.617
		c0.76,0,1.422-0.177,1.99-0.531c0.152-0.097,0.309-0.256,0.462-0.392C147.634,171.511,147.165,167.296,147.169,162.607z
		 M148.286,141.158c0.186-1.209,0.381-2.506,0.592-3.891c0.207-1.389,0.418-2.793,0.641-4.227c0.219-1.432,0.504-2.875,0.859-4.336
		c0.357-1.463,0.703-2.883,1.041-4.264c0.625-1.533,1.186-2.928,1.678-4.182c0.49-1.252,0.984-2.313,1.479-3.188
		c0.494-0.873,1.016-1.547,1.57-2.02c0.551-0.473,1.211-0.709,1.979-0.709c0.506,0,0.756,0.377,0.756,1.135
		c0,0.551-0.096,1.209-0.283,1.992c-0.193,0.781-0.438,1.623-0.736,2.521c-0.299,0.9-0.629,1.836-0.988,2.809
		c-0.357,0.971-0.717,1.906-1.078,2.807c-0.355,0.9-0.693,1.742-1.006,2.521c-0.311,0.785-0.551,1.436-0.717,1.953
		c-0.359,1.115-0.81,2.473-1.348,4.072c-0.539,1.598-1.113,3.305-1.727,5.121c-0.607,1.813-1.225,3.649-1.846,5.517
		c-0.625,1.863-1.195,3.586-1.717,5.174C147.649,147.079,147.933,144.146,148.286,141.158z"/>
	<path fill="#FFFFFF" d="M142.604,165.313l-1.707-7.821c-0.42,0.565-0.836,1.086-1.254,1.608c-0.029,0.627-0.068,1.278-0.096,1.873
		c-0.094,2.264-0.141,4.079-0.141,5.452c0,0.892,0.047,1.716,0.107,2.519c0.305-0.312,0.615-0.616,0.898-0.937
		C141.329,166.977,142.058,166.077,142.604,165.313z"/>
	<path fill="#FFFDFD" d="M182.227,134.709c1.208,0,2.244-0.186,3.109-0.557s1.582-0.855,2.15-1.453s0.979-1.281,1.242-2.045
		c0.26-0.766,0.391-1.555,0.391-2.365c0-0.885-0.158-1.65-0.479-2.297c-0.32-0.645-0.754-1.168-1.301-1.561
		c-0.545-0.395-1.184-0.688-1.916-0.881c-0.736-0.189-1.518-0.283-2.35-0.283c-1.324,0-2.431,0.209-3.317,0.627
		c-0.889,0.418-1.6,0.932-2.135,1.543c-0.53,0.605-0.918,1.26-1.15,1.955c-0.238,0.689-0.355,1.313-0.355,1.861
		c0,1.648,0.496,2.975,1.492,3.965C178.604,134.211,180.143,134.709,182.227,134.709z"/>
	<path fill="#FFFFFF" d="M187.778,161.645c-1.02,0.899-1.298,1.771-2.364,2.612c-1.063,0.838-1.742,1.556-2.784,2.146
		c-1.043,0.598-1.796,0.893-2.647,0.893c-0.734,0-1.128-0.313-1.365-0.939c-0.237-0.629-0.307-1.477-0.307-2.541
		c0-1.09,0.191-2.299,0.533-3.631c0.34-1.332,0.635-2.676,0.856-4.023c0.225-1.35,0.649-2.98,1.26-4.893
		c0.611-1.916,1.074-3.48,1.384-4.697c0.313-1.217,0.592-2.303,0.833-3.256c0.244-0.951,0.365-1.688,0.365-2.209
		c0-0.612-0.178-1.104-0.523-1.476c-0.349-0.369-1.013-0.551-1.986-0.551c-0.537,0-1.134,0.065-1.798,0.198
		c-0.666,0.132-1.309,0.332-1.922,0.608c-0.617,0.277-1.168,0.632-1.658,1.06c-0.535,0.479-0.859,1.021-0.975,1.617
		c-0.215,0.854-0.771,2.695-1.67,5.527c-0.969,3.469-1.611,5.711-1.936,6.723c-0.172,0.441-0.523,2.24-1.059,5.389
		c0.098-0.121,0.209-0.258,0.307-0.377c0.5-0.613,0.947-1.141,1.352-1.572l2.135,8.859c-0.73,0.996-1.666,1.922-2.789,2.771
		c-0.365,0.277-0.762,0.525-1.146,0.777c0.217,0.561,0.48,1.074,0.842,1.498c0.521,0.617,1.203,1.1,2.045,1.443
		c0.842,0.342,1.875,0.514,3.107,0.514c1.373,0,2.826-0.248,4.353-0.746c1.527-0.496,3.027-1.121,4.494-1.867
		c1.471-0.746,1.315-1.564,2.585-2.449c1.268-0.889,1.665-1.727,1.665-2.508v-7.213C188.965,159.975,188.8,160.743,187.778,161.645z
		"/>
	<path fill="#FFFFFF" d="M173.808,167.111l-2.135-8.86c-0.402,0.435-0.852,0.959-1.352,1.572c-0.098,0.12-0.209,0.256-0.307,0.377
		c-0.082,0.487-0.17,1-0.264,1.549c-0.332,1.99-0.494,3.731-0.494,5.226c0,1.063,0.111,2.043,0.338,2.93
		c0.068,0.272,0.178,0.513,0.275,0.759c0.385-0.252,0.779-0.5,1.146-0.777C172.142,169.032,173.077,168.107,173.808,167.111z"/>
	<path fill="none" d="M20.37,135.939c-1.594-7.139-2.434-14.557-2.434-22.172c0-55.57,44.752-100.619,99.955-100.619
		c55.205,0,99.956,45.047,99.956,100.619c0,7.314-0.775,14.445-2.25,21.316"/>
	
		<text transform="matrix(0.8774 -0.3769 0.3947 0.9188 73.1316 23.5684)" fill="#FFFFFF" font-family="'ArialMT'" font-size="15.7489">M</text>
	
		<text transform="matrix(0.9182 -0.2625 0.2749 0.9615 86.1023 18.2324)" fill="#FFFFFF" font-family="'ArialMT'" font-size="15.7489">A</text>
	
		<text transform="matrix(0.941 -0.1625 0.1702 0.9854 96.8855 15.2896)" fill="#FFFFFF" font-family="'ArialMT'" font-size="15.7489">R</text>
	
		<text transform="matrix(0.9526 -0.0661 0.0692 0.9976 106.8484 13.6733)" fill="#FFFFFF" font-family="'ArialMT'" font-size="15.7489">K</text>
	
		<text transform="matrix(0.9546 0.0262 -0.0275 0.9996 116.9714 13.0879)" fill="#FFFFFF" font-family="'ArialMT'" font-size="15.7489">E</text>
	
		<text transform="matrix(0.9478 0.1163 -0.1218 0.9926 126.405 13.4399)" fill="#FFFFFF" font-family="'ArialMT'" font-size="15.7503">T</text>
	
		<text transform="matrix(0.9362 0.1882 -0.1971 0.9804 135.8171 14.7476)" fill="#FFFFFF" font-family="'ArialMT'" font-size="15.7489">I</text>
	
		<text transform="matrix(0.9158 0.2707 -0.2835 0.959 141.363 15.8115)" fill="#FFFFFF" font-family="'ArialMT'" font-size="15.7489">N</text>
	
		<text transform="matrix(0.8772 0.3774 -0.3953 0.9186 152.6853 19.2861)" fill="#FFFFFF" font-family="'ArialMT'" font-size="15.7503">G</text>
	<g>
		<g>
			<g>
				<defs>
					<polygon id="SVGID_1_" points="235.359,149.204 0.001,126.373 0.001,82.27 235.359,82.27 					"/>
				</defs>
				<clipPath id="SVGID_2_">
					<use xlink:href="#SVGID_1_"  overflow="visible"/>
				</clipPath>
				
					<circle clip-path="url(#SVGID_2_)" fill="none" stroke="#FFFFFF" stroke-width="3" stroke-miterlimit="10" cx="118.761" cy="111.584" r="104.993"/>
			</g>
		</g>
	</g>
	<text transform="matrix(0.9613 0 0 1 123.6121 195.2061)" fill="#FFFFFF" font-family="'ArialMT'" font-size="18.3737">Desing</text>
	<g>
		<g>
			<g>
				<defs>
					<polygon id="SVGID_3_" points="218.35,157.714 16.104,127.934 17.011,13.15 218.35,13.15 					"/>
				</defs>
				<clipPath id="SVGID_4_">
					<use xlink:href="#SVGID_3_"  overflow="visible"/>
				</clipPath>
				
					<circle clip-path="url(#SVGID_4_)" fill="none" stroke="#FFFFFF" stroke-width="3" stroke-miterlimit="10" cx="118.604" cy="113.158" r="89.816"/>
			</g>
		</g>
	</g>
	<polygon fill="#FFFFFF" points="108.488,182.229 108.488,195.208 51.426,195.208 60.854,188.718 47.826,182.229 	"/>
</g>
</svg>
